<svg xmlns="http://www.w3.org/2000/svg" width="68" height="68" viewBox="0 0 68 68">
  <path id="big-account-circle" d="M35,1A33.981,33.981,0,0,0,12.333,60.314v.024l.493.425c.086.075.181.137.269.211q.916.774,1.886,1.483c.174.128.349.251.526.374q1.029.722,2.107,1.371c.12.072.244.14.364.21.789.459,1.6.891,2.422,1.286l.026.011a33.77,33.77,0,0,0,5.546,2.063c.035.01.071.021.106.03q1.362.372,2.768.628l.262.047c.9.159,1.819.285,2.747.371.106.01.212.016.317.024C33.106,68.95,34.047,69,35,69s1.894-.05,2.828-.127c.106-.008.212-.014.317-.024.928-.085,1.843-.212,2.747-.371l.262-.047q1.4-.257,2.768-.628l.106-.03a33.77,33.77,0,0,0,5.546-2.063L49.6,65.7c.827-.4,1.633-.829,2.422-1.286.122-.071.244-.137.364-.21.721-.431,1.422-.891,2.107-1.371.176-.123.351-.246.526-.374q.969-.71,1.886-1.483c.088-.074.183-.136.269-.211l.493-.425v-.024A33.981,33.981,0,0,0,35,1Zm0,34A11.333,11.333,0,1,1,46.333,23.667,11.347,11.347,0,0,1,35,35Zm4.25,2.833A15.6,15.6,0,0,1,54.833,53.417v5.607c-.06.05-.122.095-.181.145q-.839.682-1.72,1.3c-.13.092-.258.187-.388.276-.633.432-1.284.837-1.945,1.221-.12.071-.242.14-.364.21-.694.39-1.4.755-2.122,1.089-.075.035-.152.069-.228.1a31.185,31.185,0,0,1-7.384,2.3l-.242.044q-1.2.206-2.43.319c-.112.01-.225.017-.339.025-.826.064-1.656.106-2.491.106s-1.665-.043-2.49-.109c-.112-.008-.225-.016-.339-.026q-1.224-.113-2.43-.319l-.242-.044a31.185,31.185,0,0,1-7.384-2.3c-.076-.035-.153-.068-.228-.1-.721-.334-1.428-.7-2.122-1.089l-.364-.21c-.662-.383-1.312-.789-1.945-1.221-.132-.089-.259-.184-.388-.276-.586-.414-1.16-.844-1.72-1.3-.059-.048-.122-.095-.181-.145v-5.6A15.6,15.6,0,0,1,30.75,37.833ZM57.667,56.358V53.417A18.45,18.45,0,0,0,42.962,35.375a14.167,14.167,0,1,0-15.923,0A18.45,18.45,0,0,0,12.333,53.417v2.941a31.167,31.167,0,1,1,45.333,0Z" transform="translate(-1 -1)" fill="#33e1ed"/>
</svg>
