<svg xmlns="http://www.w3.org/2000/svg" width="16.696" height="16" viewBox="0 0 16.696 16">
  <path id="calendar" d="M13.914,2.782V0H9.74V2.782H6.957V0H2.783V2.782H0V16H16.7V2.782H13.915ZM11.131,1.392h1.392V4.174H11.131V1.392Zm-6.956,0H5.566V4.174H4.174V1.392ZM15.3,14.609H1.391V6.956H15.3Zm0-8.348H1.391V4.174H2.783V5.566H6.957V4.174H9.739V5.566h4.174V4.174H15.3ZM3.48,9.043h1.39v1.392H3.48Zm2.087,0h1.39v1.392H5.567Zm2.085,0h1.39v1.392H7.651Zm2.087,0h1.39v1.392H9.738Zm2.089,0h1.39v1.392h-1.39ZM3.48,11.129h1.39v1.392H3.48Zm2.087,0h1.39v1.392H5.567Zm2.085,0h1.39v1.392H7.651Z" transform="translate(-0.001)" fill="#abd4dd"/>
</svg>
