<svg xmlns="http://www.w3.org/2000/svg" width="20.858" height="20.041" viewBox="0 0 20.858 20.041">
  <path id="star-empty" d="M15.125,19.636a2.078,2.078,0,0,1-.976-.265l-3.2-1.679a2.843,2.843,0,0,0-2.152,0L5.607,19.371a1.614,1.614,0,0,1-2.056-.22,1.767,1.767,0,0,1-.322-1.507l.61-3.559a2.722,2.722,0,0,0-.665-2.046L.588,9.52A1.69,1.69,0,0,1,.027,7.792,1.689,1.689,0,0,1,1.5,6.726L5.07,6.207A2.716,2.716,0,0,0,6.811,4.943L8.409,1.7A1.686,1.686,0,0,1,9.878.636a1.687,1.687,0,0,1,1.469,1.069l1.6,3.238a2.719,2.719,0,0,0,1.741,1.264l3.572.519a1.688,1.688,0,0,1,1.472,1.066,1.688,1.688,0,0,1-.563,1.728l-2.586,2.52a2.724,2.724,0,0,0-.665,2.046l.61,3.559a1.761,1.761,0,0,1-.322,1.506,1.375,1.375,0,0,1-1.078.485ZM9.878,15.82a4.024,4.024,0,0,1,1.843.412L14.9,17.9l-.606-3.537A4.312,4.312,0,0,1,15.43,10.86L18,8.356l-3.551-.517a4.3,4.3,0,0,1-2.982-2.166L9.877,2.455,8.287,5.673A4.3,4.3,0,0,1,5.305,7.839l-3.551.517,2.57,2.5a4.312,4.312,0,0,1,1.138,3.505L4.857,17.9l3.176-1.67a4.022,4.022,0,0,1,1.843-.412Z" transform="translate(0.551 -0.136)" fill="#fff" stroke="#fff" stroke-width="1" opacity="0.4"/>
</svg>
