<svg xmlns="http://www.w3.org/2000/svg" width="17" height="17" viewBox="0 0 17 17">
  <path id="sun-stroke" d="M8.5,6.375A2.125,2.125,0,1,1,6.376,8.5,2.129,2.129,0,0,1,8.5,6.375m0-2.125A4.25,4.25,0,1,0,12.75,8.5,4.25,4.25,0,0,0,8.5,4.25ZM7.438,1.063A1.063,1.063,0,1,1,8.5,2.125,1.062,1.062,0,0,1,7.438,1.063ZM2.125,3.188A1.063,1.063,0,1,1,3.188,4.25,1.062,1.062,0,0,1,2.125,3.188ZM1.063,7.438A1.063,1.063,0,1,1,0,8.5,1.062,1.062,0,0,1,1.063,7.438Zm1.063,6.375a1.063,1.063,0,1,1,1.063,1.063A1.062,1.062,0,0,1,2.125,13.813Zm5.313,2.125A1.063,1.063,0,1,1,8.5,17,1.061,1.061,0,0,1,7.438,15.938Zm5.313-2.125a1.063,1.063,0,1,1,1.063,1.063A1.062,1.062,0,0,1,12.75,13.813Zm3.188-4.25A1.063,1.063,0,1,1,17,8.5,1.063,1.063,0,0,1,15.938,9.563ZM12.75,3.188A1.063,1.063,0,1,1,13.813,4.25,1.062,1.062,0,0,1,12.75,3.188Z" fill="#953a68"/>
</svg>
