<svg xmlns="http://www.w3.org/2000/svg" width="17" height="17" viewBox="0 0 17 17">
  <path id="calendar-fill"
        d="M13.813,2.125V3.212a2.125,2.125,0,1,1-4.25,0V2.125H7.438V3.212a2.125,2.125,0,1,1-4.25,0V2.125H0V17H17V2.125Zm-8.5,12.75H3.188V12.75H5.313Zm0-4.25H3.188V8.5H5.313Zm4.25,4.25H7.438V12.75H9.563Zm0-4.25H7.438V8.5H9.563Zm2.125,4.25V12.75h2.125Zm2.125-4.25H11.688V8.5h2.125ZM4.25,3.188V1.063a1.063,1.063,0,0,1,2.125,0V3.188a1.063,1.063,0,0,1-2.125,0Zm6.375,0V1.063a1.063,1.063,0,0,1,2.125,0V3.188a1.063,1.063,0,0,1-2.125,0Z"
        fill="#95923a"/>
</svg>
