<svg xmlns="http://www.w3.org/2000/svg" width="23.415" height="14.9" viewBox="0 0 23.415 14.9">
  <path id="people_outline" d="M17.5,13.515a12.757,12.757,0,0,0-4.789,1.064,12.555,12.555,0,0,0-4.789-1.064C5.608,13.515,1,14.664,1,16.974V19.9H24.415V16.974C24.415,14.664,19.806,13.515,17.5,13.515ZM13.24,18.3H2.6v-1.33c0-.575,2.725-1.863,5.322-1.863S13.24,16.4,13.24,16.974Zm9.579,0H14.836v-1.33a1.936,1.936,0,0,0-.553-1.3,10.268,10.268,0,0,1,3.214-.564c2.6,0,5.322,1.288,5.322,1.863ZM7.918,12.45A3.725,3.725,0,1,0,4.193,8.725,3.729,3.729,0,0,0,7.918,12.45Zm0-5.854A2.129,2.129,0,1,1,5.789,8.725,2.135,2.135,0,0,1,7.918,6.6ZM17.5,12.45a3.725,3.725,0,1,0-3.725-3.725A3.729,3.729,0,0,0,17.5,12.45Zm0-5.854a2.129,2.129,0,1,1-2.129,2.129A2.135,2.135,0,0,1,17.5,6.6Z" transform="translate(-1 -5)" fill="#fff"/>
</svg>
