<svg xmlns="http://www.w3.org/2000/svg" width="20.771" height="30.748" viewBox="0 0 20.771 30.748">
  <g id="그룹_80" transform="translate(-3330.178 -1350.265)">
    <path id="패스_71" d="M365.632,496.29a1.318,1.318,0,0,0-1.318,1.318v14.2a1.157,1.157,0,0,1-1.155,1.155h-13.19a1.157,1.157,0,0,1-1.155-1.155v-14.2a1.318,1.318,0,0,0-2.636,0v14.2a3.794,3.794,0,0,0,3.791,3.791h13.19a3.794,3.794,0,0,0,3.791-3.791v-14.2A1.317,1.317,0,0,0,365.632,496.29Z" transform="translate(2984 865.417)" fill="current"/>
    <path id="패스_72" d="M347.5,492.083h18.136a1.318,1.318,0,0,0,0-2.635h-4.659v-1.773a4.409,4.409,0,1,0-8.818,0v1.773H347.5a1.318,1.318,0,0,0,0,2.635Zm7.294-4.408a1.774,1.774,0,1,1,3.547,0v1.773H354.79Z" transform="translate(2984 867)" fill="current"/>
    <path id="패스_73" d="M352.121,501.413v7.472a1.318,1.318,0,0,0,2.636,0v-7.472a1.318,1.318,0,1,0-2.636,0Z" transform="translate(2983.278 864.955)" fill="current"/>
    <path id="패스_74" d="M360.879,501.413v7.472a1.318,1.318,0,0,0,2.636,0v-7.472a1.318,1.318,0,1,0-2.636,0Z" transform="translate(2982.214 864.955)" fill="current"/>
  </g>
</svg>
